<svg version="1.1" xmlns="http://www.w3.org/2000/svg" xmlns:xlink="http://www.w3.org/1999/xlink" width="422" height="285.08591" viewBox="0,0,422,285.08591"><g transform="translate(-30,-10.41409)"><g data-paper-data="{&quot;isPaintingLayer&quot;:true}" fill-rule="nonzero" stroke-linecap="butt" stroke-linejoin="miter" stroke-miterlimit="10" stroke-dasharray="" stroke-dashoffset="0" style="mix-blend-mode: normal"><text transform="translate(141,129.25) scale(3.20979,2.73186)" font-size="40" xml:space="preserve" fill="#000000" fill-rule="nonzero" stroke="none" stroke-width="1" stroke-linecap="butt" stroke-linejoin="miter" stroke-miterlimit="10" stroke-dasharray="" stroke-dashoffset="0" font-family="Sans Serif" font-weight="normal" text-anchor="start" style="mix-blend-mode: normal"><tspan x="0" dy="0">143</tspan></text><path d="M93,121c0,22.09139 -14.10303,40 -31.5,40c-17.39697,0 -31.5,-17.90861 -31.5,-40c0,-22.09139 14.10303,-40 31.5,-40c17.39697,0 31.5,17.90861 31.5,40z" fill="#ff0db3" stroke="none" stroke-width="0"/><path d="M452,129c0,22.64368 -14.10303,41 -31.5,41c-17.39697,0 -31.5,-18.35632 -31.5,-41c0,-22.64367 14.10303,-41 31.5,-41c17.39697,0 31.5,18.35632 31.5,41z" fill="#1a00ff" stroke="none" stroke-width="0"/><path d="M61,295.5c-2.5,0 -2.5,-2.5 -2.5,-2.5l0.12829,-2.79057c0.61993,-1.78976 0.90399,-3.7158 0.90399,-5.60989c1.1882,-3.5646 1.98935,-7.84867 1.96772,-11.59954c-0.01505,-2.61023 -0.76767,-7.5838 0.1903,-9.95671c1.07548,-2.66397 4.72167,-4.16434 6.2816,-6.50507c2.40409,-3.60742 4.89832,-10.6115 3.59498,-14.96385c-0.65166,-2.17616 -1.55786,-4.29265 -2.69351,-6.26005c-1.1062,-1.91639 -3.5041,-2.72942 -5.03004,-4.33184c-2.70338,-2.83886 -3.88213,-5.19988 -5.84993,-8.49133c-5.33408,-5.96524 -5.3508,-15.06949 -4.47467,-22.79662c0.27696,-2.44275 1.60809,-4.67026 2.01355,-7.09499c0.18279,-1.09311 -0.27396,-2.27209 0.07499,-3.324c0.41972,-1.26522 1.55497,-2.17954 2.14694,-3.37392c0.50404,-1.01699 0.5321,-2.24453 1.11917,-3.21595c0.42227,-0.69872 1.48729,-0.89548 1.81692,-1.64238c0.2762,-0.62581 -0.1645,-1.35973 -0.1903,-2.04329c-0.07038,-1.86522 0.32942,-3.7568 0.03228,-5.59955c-0.47182,-2.92606 -2.81998,-6.89057 -3.85347,-9.47198c0,0 -0.92847,-2.32119 1.39272,-3.24966c0.81273,-0.32509 1.4547,-0.2518 1.94588,-0.01924c1.47062,-0.70708 2.75035,0.57266 2.75035,0.57266c0.04588,0.04718 0.09217,0.09403 0.1388,0.14062c-0.59425,0.15606 -1.13738,0.35653 -1.63377,0.59262c0.0326,0.06658 0.04839,0.10605 0.04839,0.10605c1.25818,3.14838 3.56344,7.11043 4.14653,10.52802c0.02928,0.17162 0.0433,5.99754 0.03228,6.40045c-0.03611,1.31993 0.27428,2.72071 -0.1903,3.95671c-0.37683,1.00256 -1.63481,1.43755 -2.18308,2.35762c-0.49827,0.83615 -0.44183,1.91531 -0.88083,2.78405c-0.4832,0.9562 -1.51243,1.61032 -1.85306,2.62608c-0.28372,0.84604 0.22122,1.79571 0.07499,2.676c-0.39246,2.36264 -1.72821,4.52395 -1.98645,6.90501c-0.69694,6.42597 -1.00833,14.30748 3.52533,19.20338c1.64055,2.72485 3.18343,5.66532 5.42101,7.98755c1.66831,1.73142 4.37664,3.04205 5.69902,5.18928c0.62226,1.01041 0.7169,2.26638 1.18308,3.35762c0.63769,1.49272 1.69261,2.81732 2.12342,4.38233c1.61315,5.86006 -1.15808,14.16706 -4.40502,19.03615c-0.07089,0.10631 -3.99514,4.06143 -4.26034,4.30599c-0.46102,0.42514 -1.22907,0.60512 -1.45806,1.18894c-0.24977,0.63681 0.1645,1.35973 0.1903,2.04329c0.07542,1.99858 0.01009,4.00002 0,6c-0.02046,4.05653 -0.75054,8.55524 -2.03228,12.40046c0,2.16114 -0.4312,4.33377 -1.09601,6.39011l0.12829,1.20943c0,0 0,2.5 -2.5,2.5z" fill="#e9e7ff" stroke="none" stroke-width="0.5"/><path d="M433.02192,278.50042c0.24592,0.00717 2.47808,0.13729 2.47808,2.49958c0,2.5 -2.5,2.5 -2.5,2.5l-2.76776,-0.73224c-2.22888,-2.23823 -3.75764,-3.56899 -5.44669,-6.6075c-2.85122,-5.12921 -0.8505,-10.86625 0.84274,-15.95083c0.13818,-0.41494 2.05175,-6.18501 2.15726,-6.3697c1.00351,-1.75662 3.73958,-5.2593 5.62948,-6.77309c0.8354,-0.66914 1.99714,-0.92343 2.71078,-1.72115c2.57767,-2.88138 1.81071,-9.66522 0.74757,-13.03116c-3.04291,-2.89494 -5.08535,-6.46705 -7.76201,-9.67633c-1.9167,-2.2981 -4.76525,-4.74665 -6.23799,-7.32367c-2.01349,-3.52326 -1.37338,-7.47239 -1.37338,-11.31433c0,-2.46684 -0.3605,-4.96508 0.03228,-7.40045c0.16784,-1.04065 0.85093,-1.9565 1,-3c0.36743,-2.57199 0.09529,-5.35681 1.22193,-7.69792c0.93575,-1.94447 4.1393,-5.5017 2.87408,-8.11105c-0.61247,-1.26314 -1.75219,-2.19371 -2.62829,-3.29057c0,0 -1.5,-2 0.5,-3.5c2,-1.5 3.5,0.5 3.5,0.5c1.1239,1.56981 2.66188,2.91399 3.37171,4.70943c0.83144,2.10304 -0.35839,7.05084 -1.08542,8.80195c-0.77733,1.87226 -2.57017,3.37713 -2.81857,5.38907c-0.79877,6.46972 -1.73198,13.55749 -1,20.19909c0.35616,3.23158 4.44252,6.38642 6.42092,8.76245c2.84742,3.41972 5.14249,7.10966 8.23799,10.32367c1.28463,3.74911 2.52722,9.86525 1.30649,13.88871c-1.67827,5.53148 -4.39129,5.29257 -7.54448,9.06363c-3.68415,4.40604 -7.20031,13.07841 -6.42092,18.96154c0.37428,2.82515 2.56951,4.96682 4.5542,6.90088z" fill="#e9e7ff" stroke="none" stroke-width="0.5"/><path d="M75.5,135c0,-1.38071 1.11929,-2.5 2.5,-2.5c1.38071,0 2.5,1.11929 2.5,2.5c0,1.38071 -1.11929,2.5 -2.5,2.5c-1.38071,0 -2.5,-1.11929 -2.5,-2.5z" fill="#ff0db3" stroke="none" stroke-width="0.5"/><path d="" fill="#ff0d0f" stroke="none" stroke-width="0.5"/><path d="" fill="#ff0d0f" stroke="none" stroke-width="0.5"/><path d="" fill="#ff0d0f" stroke="none" stroke-width="0.5"/><path d="" fill="#ff0d0f" stroke="none" stroke-width="0.5"/><path d="" fill="#ff0d0f" stroke="#000000" stroke-width="0.5"/><path d="" fill="#ff0d0f" stroke="none" stroke-width="0.5"/><path d="M253.00471,227.5462c-1.58601,-0.79013 -3.76944,-5.74128 -5.10638,-7.25018c-0.57423,-0.64809 -1.16039,-1.28521 -1.75469,-1.91483c-0.65581,-0.2662 -1.17306,-0.80269 -1.41348,-1.47125c-2.83285,-2.90416 -5.77813,-5.70259 -8.44266,-8.74867c-4.4343,-6.62866 -9.46705,-15.60228 -9.01108,-23.90919c0.30444,-5.54627 5.29247,-12.64724 10.97932,-13.80657c5.05694,-1.03091 10.02595,1.90508 13.67561,5.14997c6.2418,-7.64975 21.97759,-8.50044 27.47292,0.49003c4.8515,7.93714 0.7965,18.46352 -2.91599,25.96378c-2.35211,4.30579 -5.27976,8.19308 -7.81788,12.37153c-0.28145,0.46335 -0.52806,0.9447 -0.75093,1.43811c-0.64693,0.60901 -1.21272,1.30326 -1.67942,2.0648c-0.16952,0.12654 -0.33959,0.25626 -0.50971,0.38906c-0.42185,0.83418 -0.85206,1.66424 -1.29162,2.48927c0.02795,0.08021 0.05157,0.16405 0.07011,0.25163c-1.0206,0.87694 -1.86228,1.95624 -2.46281,3.17568c-0.21625,0.22602 -0.42201,0.46218 -0.61648,0.70768c-1.04015,0.65873 -1.95038,1.50411 -2.6836,2.48906c-1.89461,0.79223 -3.88233,1.04619 -5.74123,0.1201z" fill="#ff0d0f" stroke="none" stroke-width="0.5"/><path d="" fill="#ff0d0f" stroke="none" stroke-width="0.5"/><path d="" fill="#ff0d0f" stroke="none" stroke-width="0.5"/></g></g></svg>